<svg height="7000" width="4000" xmlns="http://www.w3.org/2000/svg">
<g transform="scale(37.77)">
<path id="lineDE" d="M 14 62 L 36 62" stroke="grey" stroke-width="1" stroke-dasharray="1" fill ="none" />
<path id="lineBC" d="M 13 43 L 37 43" stroke="grey" stroke-width="1" stroke-dasharray="1"  fill ="none" />
<path id="lineFG" d="M 14 82 L 36 82" stroke="grey" stroke-width="1" stroke-dasharray="1"  fill ="none" />
<path id="lineCEGI" d="M 37 43 L 36 62 L 36 82 L 38 131" stroke="black" stroke-width="1" fill ="none" />
<path id="lineXDA" d="M 14 132 L 14 62 L 12 22 " stroke="black" stroke-width="1" fill ="none" />
<path id="lineXHI" d="M 14 132 L 36 132 L 38 131" stroke="black" stroke-width="1" fill ="none" />
<path id="lineJK" d="M 20 19 L 32 24" stroke="black" stroke-width="1" fill ="none" />
<path id="zasevekA" d="M 23 77 L 22 62 L 23 47 L 24 62 L 23 77" stroke="black" stroke-width="1" fill ="none" />
<path id="QlineCK" d="M 37 43 A 7 13 0 0 1 32 24" stroke="orange" stroke-width="1" fill ="none" />
<path id="BlineCK" d="M 37 43 Q 29 43 32 24" stroke="pink" stroke-width="1" fill ="none" />
<path id="QlineAJ" d="M 12 22 A 7 3 0 0 0 20 19" stroke="orange" stroke-width="1" fill ="none" />
<path id="BlineAJ" d="M 12 22 Q 20 22 20 19" stroke="pink" stroke-width="1" fill ="none" />
<path id="zasevekL1ML2" d="M 32 31 L 23 32 L 32 33" stroke="black" stroke-width="1" fill ="none" />

<path id="lineNO" d="M 45 43 L 69 43" stroke="grey" stroke-width="1" stroke-dasharray="1"  fill ="none" />
<path id="linePU" d="M 69 62 L 46 62" stroke="grey" stroke-width="1" stroke-dasharray="1"  fill ="none" />
<path id="lineTQ" d="M 43 82 L 69 82" stroke="grey" stroke-width="1" stroke-dasharray="1"  fill ="none" />
<path id ="lineZRS2ST" d="M 68 23 L 69 132 L 53 132 L 41 131 L 43 82" stroke="black" stroke-width="1" fill ="none" />
<path id="lineTU1N" d="M 43 82 L 46 61 L 45 43" stroke="black" stroke-width="1" fill ="none" />
<path id="zasevekA" d="M 59 77 L 57 62 L 59 47 L 61 62 L 59 77" stroke="black" stroke-width="1" fill ="none" />
<path id="linebodWbodNObodXXX" d="M 51 19 L 59 45 L 59 18" stroke="black" stroke-width="1" fill ="none" />
<path id="linebodXXXbodY" d="M 62 16 L 59 18" stroke="grey" stroke-width="1"  fill ="none" />
<path id="BlineYZ" d="M 62 16 Q 62 23 68 23" stroke="pink" stroke-width="1" fill ="none" />
<path id="lineWV" d="M 51 19 L 45 26" stroke="black" stroke-width="1" fill ="none" />
<path id="BlineNbodPR" d="M 45 43 Q 49 43 49 39" stroke="pink" stroke-width="1" fill ="none" />
<path id="linebodPRbodV" d="M 49 39 L 45 26" stroke="pink" stroke-width="1" fill ="none" />
</g>
</svg>
